<svg xmlns="http://www.w3.org/2000/svg" width="698.33283" height="504.5428" viewBox="0 0 698.33283 504.5428" xmlns:xlink="http://www.w3.org/1999/xlink"><path d="M370.97998,73H19.02002c-10.48999,0-19.02002,8.52997-19.02002,19.01996v250.96002c0,10.48999,8.53003,19.02002,19.02002,19.02002H370.97998c10.48999,0,19.02002-8.53003,19.02002-19.02002V92.01996c0-10.48999-8.53003-19.01996-19.02002-19.01996Zm17.02002,212.3037c0,41.25363-33.44267,74.6963-74.6963,74.6963H19.02002c-9.3999,0-17.02002-7.62012-17.02002-17.02002V92.01996c0-9.39986,7.62009-17.01996,17.01996-17.01996H370.97998c9.3999,0,17.02002,7.62012,17.02002,17.02002v193.28368Z" fill="#3f3d56"/><g><polygon points="475.09744 495.4243 488.48672 495.423 494.85608 443.77802 475.09475 443.77941 475.09744 495.4243" fill="#a0616a"/><path d="M520.97081,495.12057h0c.4169,.70213,.63687,2.96829,.63687,3.78481h0c0,2.50976-2.03453,4.54438-4.54438,4.54438h-41.46506c-1.71215,0-3.10019-1.38797-3.10019-3.10019v-1.72632s-2.05124-5.1885,2.1719-11.58361c0,0,5.24879,5.00747,13.09183-2.83557l2.31284-4.18989,16.7418,12.24411,9.27973,1.14225c2.03022,.24988,3.83019-.03878,4.8745,1.72005h.00016Z" fill="#2f2e41"/></g><g><polygon points="515.93316 481.80053 528.5764 486.20751 551.59396 439.53884 532.9339 433.03404 515.93316 481.80053" fill="#a0616a"/><path d="M559.34902,496.61683h0c.16249,.80024-.3759,3.01248-.64472,3.78348h0c-.8263,2.36984-3.41727,3.62118-5.78719,2.79486l-39.15331-13.65172c-1.61669-.5637-2.47039-2.33128-1.90666-3.94804l.56836-1.63008s-.22864-5.57457,5.86453-10.22274c0,0,3.30753,6.45637,13.2955,1.6328l3.56335-3.19483,11.77723,17.07345,8.3863,4.13377c1.83476,.90436,3.62942,1.22441,4.03644,3.22901l.00015,.00005Z" fill="#2f2e41"/></g><path d="M99.18329,177H47.18329c-2.20557,0-4-1.79443-4-4s1.79443-4,4-4h52c2.20557,0,4,1.79443,4,4s-1.79443,4-4,4Z" fill="#e6e6e6"/><rect x="43.10243" y="138.57088" width="195.08105" height="1" fill="#e6e6e6"/><path d="M178.18329,247h-52c-2.20557,0-4-1.79443-4-4s1.79443-4,4-4h52c2.20557,0,4,1.79443,4,4s-1.79443,4-4,4Z" fill="#e6e6e6"/><rect x="122.10243" y="208.57088" width="195.08105" height="1" fill="#e6e6e6"/><path d="M105.18329,339H53.18329c-2.20557,0-4-1.79443-4-4s1.79443-4,4-4h52c2.20557,0,4,1.79443,4,4s-1.79443,4-4,4Z" fill="#e6e6e6"/><rect x="49.10243" y="300.57088" width="195.08105" height="1" fill="#e6e6e6"/><g><path d="M258.12294,376.14425l-8.22992-3.89856c3.37555,4.71082,6.28418,12.06805,7.84137,17.92249,2.63654-5.45343,6.88672-12.1261,11.09375-16.11194l-8.69812,2.23767c5.35974-26.26794,25.5191-45.12573,48.60437-45.12573v-2c-24.11316,0-45.13898,19.64758-50.61145,46.97607Z" fill="#3f3d56"/><path d="M296.00212,416.16817h-52c-2.20557,0-4-1.79443-4-4s1.79443-4,4-4h52c2.20557,0,4,1.79443,4,4s-1.79443,4-4,4Z" fill="#6c63ff"/></g><g><path d="M597.12294,269.14425l-8.22992-3.89856c3.37555,4.71082,6.28418,12.06805,7.84137,17.92249,2.63654-5.45343,6.88672-12.1261,11.09375-16.11194l-8.69812,2.23767c5.35974-26.26794,25.5191-45.12573,48.60437-45.12573v-2c-24.11316,0-45.13898,19.64758-50.61145,46.97607Z" fill="#3f3d56"/><path d="M635.00212,309.16817h-52c-2.20557,0-4-1.79443-4-4s1.79443-4,4-4h52c2.20557,0,4,1.79443,4,4s-1.79443,4-4,4Z" fill="#6c63ff"/></g><polygon points="540 193 451 206 473 473 498 472 506 290 539 371 519 471 544 470.02362 574 370 554 256 540 193" fill="#2f2e41"/><path d="M514,62h-32.3937l-34.6063,145.15748s23.97125,22.26007,54.98563,2.05129c31.01437-20.20878,48.01437,1.79122,48.01437,1.79122l-36-149Z" fill="#6c63ff"/><polygon points="438 246 494 259 496 95 481.6063 62 473 76 447 92.10236 450 193 438 246" fill="#2f2e41"/><polygon points="514.88253 65.6527 546.5 92.5 547 190 561 237 517.5 257.5 504 94 514.88253 65.6527" fill="#2f2e41"/><g><path d="M620.46962,227.41325c3.01202,5.8307,2.44583,12.11119-1.26461,14.02793-3.71045,1.91674-9.16003-1.25613-12.17205-7.08683-1.31846-2.5523-1.95114-5.19075-1.93476-7.51169l-12.45282-24.86644,11.79361-5.59526,11.02429,25.10732c1.90228,1.3298,3.68788,3.37268,5.00634,5.92497Z" fill="#a0616a"/><path d="M520.45775,69.86133s23.43932,18.92402,30.67121,25.52211c3.84296,3.50616,29.61537,57.60751,29.61537,57.60751l35.79685,62.34162-18.60723,7.06787-38.06313-57.48177-32.87083-37.91867-6.54225-57.13867Z" fill="#2f2e41"/></g><g><path d="M374.53038,233.41325c-3.01202,5.8307-2.44583,12.11119,1.26461,14.02793,3.71045,1.91674,9.16003-1.25613,12.17205-7.08683,1.31846-2.5523,1.95114-5.19075,1.93476-7.51169l12.45282-24.86644-11.79361-5.59526-11.02429,25.10732c-1.90228,1.3298-3.68788,3.37268-5.00634,5.92497Z" fill="#a0616a"/><path d="M473.89426,74.50294s-22.79133,12.28241-30.02322,18.8805c-3.84296,3.50616-29.61537,65.60751-29.61537,65.60751l-35.79685,62.34162,18.60723,7.06787,38.06313-57.48177,25.87083-31.91867,12.89426-64.49706Z" fill="#2f2e41"/></g><circle cx="498.52097" cy="30.49125" r="26.11532" fill="#a0616a"/><path d="M509.2363,0s1.86801,7.47205-6.53804,.93401c-3.06521-2.38406-6.98518,1.45402-10.27407,1.86801-5.73057,.72134-10.27407,.17546-10.27407,3.73602,0,2.27624-3.02296-1.18764-4.67003-.93401-2.40797,.3708-3.73602,3.73602-3.73602,3.73602-3.64743,2.32111-6.53804,7.47205-.93401,9.34006-5.60404,6.53804-.40943,9.86954-.40943,9.86954l5.07946-6.13352c2.63087,1.43502,6.20318,5.14305,7.51337,3.06317,3.6947-5.86519,14.56665,.24976,19.07159-2.21354,4.53641-2.4805,7.03925,7.55642,7.03925,7.55642l2.07837,1.08108s-1.14436-2.01509,4.45967-3.8831c2.80202-.93401,3.50252,1.86801,3.50252,4.90353,0,3.43348-.97793,6.79637-2.66482,9.78689l-5.29737,9.39119,2.32601-1.48312c4.89556-3.12153,8.09423-8.08768,9.82264-13.63052,.0834-.26745,.19418-.50902,.33741-.71566l-.55434-4.51628,1.82828,2.14621c.28201-.80369,.3543-1.55436,.03973-2.14621-3.36713-6.33555,1.86801-10.27407-3.73602-18.68012-8.30567-12.4585-14.01009-13.07608-14.01009-13.07608Z" fill="#2f2e41"/><path d="M332.66278,503.35279c0,.66003,.53003,1.19,1.19006,1.19h363.28998c.65997,0,1.19-.52997,1.19-1.19,0-.65997-.53003-1.19-1.19-1.19H333.85284c-.66003,0-1.19006,.53003-1.19006,1.19Z" fill="#ccc"/><g><path d="M290.18115,249.5h-31.3623c-4.03564,0-7.31885-3.2832-7.31885-7.31885v-35.3623c0-4.03564,3.2832-7.31885,7.31885-7.31885h31.3623c4.03564,0,7.31885,3.2832,7.31885,7.31885v35.3623c0,4.03564-3.2832,7.31885-7.31885,7.31885Z" fill="#fff"/><path d="M290.18115,249.5h-31.3623c-4.03564,0-7.31885-3.2832-7.31885-7.31885v-35.3623c0-4.03564,3.2832-7.31885,7.31885-7.31885h31.3623c4.03564,0,7.31882,3.28321,7.31882,7.31885,3.51465,11.12619,3.15778,22.98074,0,35.3623,0,4.03564-3.28317,7.31884-7.31882,7.31884Zm-31.3623-49c-3.48438,0-6.31885,2.83447-6.31885,6.31885v35.3623c0,3.48438,2.83447,6.31885,6.31885,6.31885h31.3623c3.48438,0,6.31885-2.83447,6.31885-6.31885v-35.3623c0-3.48438-2.83447-6.31885-6.31885-6.31885h-31.3623Z" fill="#3f3d56"/><path d="M287.01222,221h-25.84115c-1.09605,0-1.98778-.89174-1.98778-1.98778s.89174-1.98778,1.98778-1.98778h25.84115c1.09605,0,1.98778,.89174,1.98778,1.98778s-.89174,1.98778-1.98778,1.98778Z" fill="#6c63ff"/><path d="M287.01222,232h-25.84115c-1.09605,0-1.98778-.89174-1.98778-1.98778s.89174-1.98778,1.98778-1.98778h25.84115c1.09605,0,1.98778,.89174,1.98778,1.98778s-.89174,1.98778-1.98778,1.98778Z" fill="#6c63ff"/></g><g><path d="M92.39769,154.69291h-31.3623c-4.03564,0-7.31885-3.2832-7.31885-7.31885v-35.3623c0-4.03564,3.2832-7.31885,7.31885-7.31885h31.3623c4.03564,0,7.31885,3.2832,7.31885,7.31885v35.3623c0,4.03564-3.2832,7.31885-7.31885,7.31885Z" fill="#fff"/><path d="M92.39769,154.69291h-31.3623c-4.03564,0-7.31886-3.28321-7.31886-7.31885-1.57703-13.02136-2.01147-25.14868,0-35.3623,0-4.03564,3.28322-7.31884,7.31886-7.31884h31.3623c4.03564,0,7.31885,3.2832,7.31885,7.31885v35.3623c0,4.03564-3.2832,7.31885-7.31885,7.31885Zm-31.3623-49c-3.48438,0-6.31885,2.83447-6.31885,6.31885v35.3623c0,3.48438,2.83447,6.31885,6.31885,6.31885h31.3623c3.48438,0,6.31885-2.83447,6.31885-6.31885v-35.3623c0-3.48438-2.83447-6.31885-6.31885-6.31885h-31.3623Z" fill="#3f3d56"/><path d="M89.22875,126.19291h-25.84115c-1.09605,0-1.98778-.89174-1.98778-1.98778s.89174-1.98778,1.98778-1.98778h25.84115c1.09605,0,1.98778,.89174,1.98778,1.98778s-.89174,1.98778-1.98778,1.98778Z" fill="#6c63ff"/><path d="M89.22875,137.19291h-25.84115c-1.09605,0-1.98778-.89174-1.98778-1.98778s.89174-1.98778,1.98778-1.98778h25.84115c1.09605,0,1.98778,.89174,1.98778,1.98778s-.89174,1.98778-1.98778,1.98778Z" fill="#6c63ff"/><path d="M89.22875,115.19291h-25.84115c-1.09605,0-1.98778-.89174-1.98778-1.98778s.89174-1.98778,1.98778-1.98778h25.84115c1.09605,0,1.98778,.89174,1.98778,1.98778s-.89174,1.98778-1.98778,1.98778Z" fill="#6c63ff"/></g><g><path d="M427.04735,226.95509l-23.43675,20.84017c-3.0158,2.68168-7.651,2.40988-10.33264-.60593-9.74176-7.73694-17.73267-16.45679-23.49817-26.42596-2.6817-3.01575-2.40986-7.65096,.60594-10.33263l23.43675-20.84017c3.0158-2.68168,7.65099-2.40985,10.33266,.60595l23.49816,26.42592c2.68168,3.0158,2.40985,7.65099-.60595,10.33266Z" fill="#fff"/><path d="M427.04735,226.95509l-23.43675,20.84017c-3.0158,2.68168-7.651,2.40988-10.33264-.60593-11.11359-6.80438-19.44055-15.3111-23.49817-26.42596-2.6817-3.01575-2.40986-7.65096,.60594-10.33263l23.43675-20.84017c3.0158-2.68168,7.65099-2.40985,10.33266,.60595l23.49816,26.42592c2.68168,3.0158,2.40985,7.65099-.60595,10.33266Zm-55.99713-15.77706c-2.60384,2.31536-2.83849,6.31703-.52318,8.92085,5.19757,10.54388,13.21167,19.23315,23.49817,26.42596,2.31537,2.60382,6.31705,2.83849,8.92089,.52313l23.43675-20.84017c2.60384-2.31536,2.83852-6.31703,.52316-8.92087l-23.49816-26.42592c-2.31536-2.60384-6.31703-2.83852-8.92087-.52316l-23.43675,20.84017Z" fill="#3f3d56"/><path d="M405.74106,207.76306l-19.31085,17.17138c-.81906,.72832-2.07801,.65449-2.80633-.16457s-.65449-2.07801,.16457-2.80633l19.31085-17.17138c.81906-.72832,2.07801-.65449,2.80633,.16457s.65449,2.07801-.16457,2.80633Z" fill="#6c63ff"/><path d="M413.05053,215.98325l-19.31085,17.17138c-.81906,.72832-2.07801,.65449-2.80633-.16457s-.65449-2.07801,.16457-2.80633l19.31085-17.17138c.81906-.72832,2.07801-.65449,2.80633,.16457s.65449,2.07801-.16457,2.80633Z" fill="#6c63ff"/><path d="M398.43159,199.54286l-19.31085,17.17138c-.81906,.72832-2.07801,.65449-2.80633-.16457s-.65449-2.07801,.16457-2.80633l19.31085-17.17138c.81906-.72832,2.07801-.65449,2.80633,.16457s.65449,2.07801-.16457,2.80633Z" fill="#6c63ff"/></g><g><path d="M157.39769,329.69291h-31.3623c-4.03564,0-7.31885-3.2832-7.31885-7.31885v-35.3623c0-4.03564,3.2832-7.31885,7.31885-7.31885h31.3623c4.03564,0,7.31885,3.2832,7.31885,7.31885v35.3623c0,4.03564-3.2832,7.31885-7.31885,7.31885Z" fill="#fff"/><path d="M157.39769,329.69291h-31.3623c-4.03564,0-7.31886-3.28321-7.31886-7.31885-2.78049-11.65225-2.54993-23.45087,0-35.3623,0-4.03564,3.28322-7.31884,7.31886-7.31884h31.3623c4.03564,0,7.31885,3.2832,7.31885,7.31885v35.3623c0,4.03564-3.2832,7.31885-7.31885,7.31885Zm-31.3623-49c-3.48438,0-6.31885,2.83447-6.31885,6.31885v35.3623c0,3.48438,2.83447,6.31885,6.31885,6.31885h31.3623c3.48438,0,6.31885-2.83447,6.31885-6.31885v-35.3623c0-3.48438-2.83447-6.31885-6.31885-6.31885h-31.3623Z" fill="#3f3d56"/><path d="M154.22875,301.19291h-25.84115c-1.09605,0-1.98778-.89174-1.98778-1.98778s.89174-1.98778,1.98778-1.98778h25.84115c1.09605,0,1.98778,.89174,1.98778,1.98778s-.89174,1.98778-1.98778,1.98778Z" fill="#6c63ff"/></g></svg>