<?xml version="1.0" encoding="UTF-8"?>
<svg width="20px" height="20px" viewBox="0 0 20 20" version="1.1" xmlns="http://www.w3.org/2000/svg" xmlns:xlink="http://www.w3.org/1999/xlink">
    <!-- Generator: Sketch 51.2 (57519) - http://www.bohemiancoding.com/sketch -->
    <title>Icon / Calendar</title>
    <desc>Created with Sketch.</desc>
    <defs>
        <path d="M12.764977,14.2432258 L15.8986175,14.2432258 L15.8986175,12.0312442 L12.764977,12.0312442 L12.764977,14.2432258 Z M12.764977,11.2017512 L15.8986175,11.2017512 L15.8986175,8.89760369 L12.764977,8.89760369 L12.764977,11.2017512 Z M12.764977,8.0681106 L15.8986175,8.0681106 L15.8986175,5.85612903 L12.764977,5.85612903 L12.764977,8.0681106 Z M11.9354839,5.02663594 L8.80184332,5.02663594 L7.97235023,5.02663594 L4.83870968,5.02663594 L4.00921659,5.02663594 L0.875576037,5.02663594 L0.875576037,2.72248848 L3.0875576,2.72248848 L3.0875576,4.19714286 L3.91705069,4.19714286 L3.91705069,2.72248848 L12.764977,2.72248848 L12.764977,4.19714286 L13.59447,4.19714286 L13.59447,2.72248848 L15.8986175,2.72248848 L15.8986175,5.02663594 L12.764977,5.02663594 L11.9354839,5.02663594 Z M8.80184332,8.0681106 L11.9354839,8.0681106 L11.9354839,5.85612903 L8.80184332,5.85612903 L8.80184332,8.0681106 Z M8.80184332,11.2017512 L11.9354839,11.2017512 L11.9354839,8.89760369 L8.80184332,8.89760369 L8.80184332,11.2017512 Z M8.80184332,14.2432258 L11.9354839,14.2432258 L11.9354839,12.0312442 L8.80184332,12.0312442 L8.80184332,14.2432258 Z M4.83870968,8.0681106 L7.97235023,8.0681106 L7.97235023,5.85612903 L4.83870968,5.85612903 L4.83870968,8.0681106 Z M4.83870968,11.2017512 L7.97235023,11.2017512 L7.97235023,8.89760369 L4.83870968,8.89760369 L4.83870968,11.2017512 Z M4.83870968,14.2432258 L7.97235023,14.2432258 L7.97235023,12.0312442 L4.83870968,12.0312442 L4.83870968,14.2432258 Z M0.875576037,8.0681106 L4.00921659,8.0681106 L4.00921659,5.85612903 L0.875576037,5.85612903 L0.875576037,8.0681106 Z M0.875576037,11.2017512 L4.00921659,11.2017512 L4.00921659,8.89760369 L0.875576037,8.89760369 L0.875576037,11.2017512 Z M0.875576037,14.2432258 L4.00921659,14.2432258 L4.00921659,12.0312442 L0.875576037,12.0312442 L0.875576037,14.2432258 Z M15.8986175,1.89299539 L13.59447,1.89299539 L13.59447,0.510506912 C13.59447,0.2559447 13.3882028,0.0496774194 13.1336406,0.0496774194 C12.9300461,0.0496774194 12.764977,0.214746544 12.764977,0.418341014 L12.764977,1.89299539 L3.91705069,1.89299539 L3.91705069,0.418341014 C3.91705069,0.214746544 3.75198157,0.0496774194 3.5483871,0.0496774194 L3.4562212,0.0496774194 C3.25262673,0.0496774194 3.0875576,0.214746544 3.0875576,0.418341014 L3.0875576,1.89299539 L0.875576037,1.89299539 L0.506912442,1.89299539 C0.25235023,1.89299539 0.0460829493,2.09926267 0.0460829493,2.35382488 L0.0460829493,2.72248848 L0.0460829493,5.02663594 L0.0460829493,5.85612903 L0.0460829493,8.0681106 L0.0460829493,8.89760369 L0.0460829493,11.2017512 L0.0460829493,12.0312442 L0.0460829493,14.2432258 L0.0460829493,14.6118894 C0.0460829493,14.8664516 0.25235023,15.0727189 0.506912442,15.0727189 L0.875576037,15.0727189 L4.00921659,15.0727189 L4.83870968,15.0727189 L7.97235023,15.0727189 L8.80184332,15.0727189 L11.9354839,15.0727189 L12.764977,15.0727189 L15.8986175,15.0727189 L16.2672811,15.0727189 C16.5218433,15.0727189 16.7281106,14.8664516 16.7281106,14.6118894 L16.7281106,2.35382488 C16.7281106,2.09926267 16.5218433,1.89299539 16.2672811,1.89299539 L15.8986175,1.89299539 Z" id="path-1"></path>
    </defs>
    <g id="Components" stroke="none" stroke-width="1" fill="none" fill-rule="evenodd">
        <g id="Form-/-Date-picker" transform="translate(-1116.000000, -1107.000000)">
            <g id="Group-6" transform="translate(724.000000, 55.000000)">
                <g id="Date-Picker-/-Input-Props-02-/-Active-Icon-Filled-Both" transform="translate(188.000000, 1046.000000)">
                    <g id="Input-Props">
                        <g id="Icon-/-Calendar_export" transform="translate(204.000000, 6.000000)">
                            <g id="Icon-/-Calendar">
                                <g id="Fill-/-Color-/-Gray" transform="translate(1.658986, 2.396313)">
                                    <mask id="mask-2" fill="white">
                                        <use xlink:href="#path-1"></use>
                                    </mask>
                                    <use id="Mask" fill="#231F20" xlink:href="#path-1"></use>
                                    <g id="Fill-/-58595B" mask="url(#mask-2)" fill="#535353">
                                        <g transform="translate(-1.658986, -2.396313)" id="orange">
                                            <rect x="0" y="0" width="20" height="20"></rect>
                                        </g>
                                    </g>
                                </g>
                            </g>
                        </g>
                    </g>
                </g>
            </g>
        </g>
    </g>
</svg>