<?xml version="1.0" encoding="UTF-8" standalone="no"?>
<svg
   xmlns:dc="http://purl.org/dc/elements/1.1/"
   xmlns:cc="http://creativecommons.org/ns#"
   xmlns:rdf="http://www.w3.org/1999/02/22-rdf-syntax-ns#"
   xmlns:svg="http://www.w3.org/2000/svg"
   xmlns="http://www.w3.org/2000/svg"
   viewBox="0 0 2666.6667 2666.6667"
   height="2666.6667"
   width="2666.6667"
   xml:space="preserve"
   id="svg2"
   version="1.1"><metadata
     id="metadata8"><rdf:RDF><cc:Work
         rdf:about=""><dc:format>image/svg+xml</dc:format><dc:type
           rdf:resource="http://purl.org/dc/dcmitype/StillImage" /><dc:title></dc:title></cc:Work></rdf:RDF></metadata><defs
     id="defs6" /><g
     transform="matrix(1.3333333,0,0,-1.3333333,0,2666.6667)"
     id="g10"><g
       transform="scale(0.1)"
       id="g12"><g
         transform="scale(1.22699)"
         id="g14"><path
           id="path16"
           style="fill:#ffffff;fill-opacity:1;fill-rule:nonzero;stroke:none"
           d="M 16300,0 H 0 V 16300 H 16300 V 0" /></g><path
         id="path18"
         style="fill:#231f20;fill-opacity:1;fill-rule:nonzero;stroke:none"
         d="m 6753.19,6141.2 c -46.32,51.5 -103.97,100.9 -171.39,146.7 -61.07,41.4 -132.82,84.2 -213.12,127.1 -69.44,37.1 -128.76,70.3 -176.39,98.7 -37.97,22.7 -67.78,44.6 -88.64,65.1 -13.99,13.8 -23.64,27.1 -28.69,39.5 -3.07,7.5 -8.22,25 -8.22,57.4 0,20.3 3.29,36.6 9.79,48.4 8.17,14.9 18.82,26.6 33.53,37 19.35,13.6 43.46,24.5 71.63,32.2 32.6,9 68.54,13.5 106.84,13.5 114.4,0 209.49,-22.7 290.71,-69.4 l 254.7,-146.3 v 592.7 l -105.21,43.4 c -115.97,47.8 -257.71,72 -421.3,72 -97.2,0 -190.52,-13.5 -277.41,-40.2 -90.11,-27.8 -170.69,-68.7 -239.52,-121.7 -71.87,-55.3 -129.76,-123.4 -172.07,-202.3 -44.32,-82.7 -66.8,-175.8 -66.8,-276.9 0,-77.4 11.67,-149 34.68,-212.7 23.71,-65.7 60.7,-127 109.88,-182.1 43.98,-49.2 99.88,-97.1 166.09,-142 59.2,-40.3 130.56,-83.1 212.11,-127.5 67.52,-37.4 126.73,-71.3 175.94,-100.7 40.96,-24.6 74.32,-48.7 99.09,-71.6 16.51,-15.2 28.16,-30.3 34.58,-44.7 5.99,-13.4 9.16,-32.8 9.16,-56 0,-57.6 -17.5,-79.1 -36.41,-93.8 -20.92,-16.3 -75.1,-43.6 -203.02,-43.6 -25.98,0 -54.07,2.5 -83.5,7.3 -30.31,4.9 -60.91,12.3 -91.08,21.9 -29.86,9.5 -59.57,21.5 -88.36,35.8 -26.97,13.3 -51.69,28.3 -73.45,44.6 l -272,204 v -630.3 l 79.35,-50 c 34.61,-21.8 75.74,-40.5 125.67,-57.1 42.01,-14 86.66,-26.3 132.73,-36.3 45.54,-10 91.37,-17.7 136.29,-23 46.55,-5.4 86.38,-8 121.76,-8 102.21,0 198.37,12.2 285.82,36.3 93.22,25.7 175.79,65.1 245.4,117.1 74.51,55.5 133.22,126.5 174.5,210.8 40.75,83.2 61.41,178.5 61.41,283.2 0,78.4 -13.35,151.8 -39.69,218.3 -25.85,65.1 -64.66,126.8 -115.39,183.2" /><path
         id="path20"
         style="fill:#231f20;fill-opacity:1;fill-rule:nonzero;stroke:none"
         d="m 8891.78,5338.1 c 138.4,157.5 208.58,386.3 208.58,680 V 7269 H 8592.81 V 5987.9 c 0,-373.2 -156.75,-404.5 -303.67,-404.5 -169.75,0 -221.42,63.7 -238.41,84.6 -53.41,65.8 -81.64,182.5 -81.64,337.5 V 7269 H 7461.54 V 5990.4 c 0,-782.6 503.52,-899.4 803.66,-899.4 271.74,0 482.55,83.1 626.58,247.1" /><path
         id="path22"
         style="fill:#231f20;fill-opacity:1;fill-rule:nonzero;stroke:none"
         d="m 10885.4,6141.2 c -46.3,51.5 -103.9,100.9 -171.4,146.7 -61,41.4 -132.8,84.2 -213.1,127.1 -69.4,37.1 -128.7,70.3 -176.4,98.7 -38,22.7 -67.8,44.6 -88.6,65.1 -14,13.8 -23.7,27.1 -28.7,39.5 -3.1,7.5 -8.2,25 -8.2,57.4 0,20.3 3.3,36.6 9.8,48.4 8.1,14.9 18.8,26.6 33.5,37 19.3,13.6 43.5,24.5 71.6,32.2 32.6,9 68.6,13.5 106.9,13.5 114.4,0 209.4,-22.7 290.7,-69.4 l 254.7,-146.3 v 592.7 l -105.2,43.4 c -116,47.8 -257.8,72 -421.3,72 -97.2,0 -190.6,-13.5 -277.4,-40.2 -90.2,-27.8 -170.74,-68.7 -239.57,-121.7 -71.86,-55.3 -129.76,-123.4 -172.06,-202.3 -44.33,-82.7 -66.8,-175.8 -66.8,-276.9 0,-77.4 11.66,-149 34.67,-212.7 23.71,-65.7 60.7,-127 109.88,-182.1 43.98,-49.2 99.88,-97.1 166.09,-142 59.19,-40.3 130.59,-83.1 212.09,-127.5 67.5,-37.4 126.8,-71.3 176,-100.7 40.9,-24.6 74.3,-48.7 99.1,-71.6 16.5,-15.2 28.1,-30.3 34.5,-44.7 6,-13.4 9.2,-32.8 9.2,-56 0,-57.6 -17.5,-79.1 -36.4,-93.8 -20.9,-16.3 -75.1,-43.6 -203,-43.6 -26,0 -54.1,2.5 -83.5,7.3 -30.3,4.9 -60.9,12.3 -91.1,21.9 -29.9,9.5 -59.6,21.5 -88.4,35.8 -26.95,13.3 -51.67,28.3 -73.43,44.6 l -272,204 v -630.3 l 79.35,-50 c 34.61,-21.8 75.74,-40.5 125.67,-57.1 42.01,-14 86.67,-26.3 132.71,-36.3 45.6,-10 91.4,-17.7 136.3,-23 46.6,-5.4 86.4,-8 121.8,-8 102.2,0 198.3,12.2 285.8,36.3 93.2,25.7 175.8,65.1 245.4,117.1 74.5,55.5 133.2,126.5 174.5,210.8 40.7,83.2 61.4,178.5 61.4,283.2 0,78.4 -13.3,151.8 -39.7,218.3 -25.8,65.1 -64.6,126.8 -115.4,183.2" /><path
         id="path24"
         style="fill:#231f20;fill-opacity:1;fill-rule:nonzero;stroke:none"
         d="M 12769.1,6459 H 12124 v 810 h -507.6 V 5122.5 h 507.6 v 845.3 h 645.1 v -845.3 h 507.6 V 7269 h -507.6 v -810" /><path
         id="path26"
         style="fill:#231f20;fill-opacity:1;fill-rule:nonzero;stroke:none"
         d="M 13947.1,7269 V 5122.5 h 507.6 V 7269 h -507.6" /><path
         id="path28"
         style="fill:#231f20;fill-opacity:1;fill-rule:nonzero;stroke:none"
         d="m 5956.96,4195.7 c -10.44,11.6 -23.53,22.8 -38.92,33.2 -14.46,9.8 -31.51,20 -50.65,30.2 -17.25,9.2 -31.99,17.5 -43.84,24.6 -10.44,6.2 -18.8,12.4 -24.85,18.3 -5.03,5 -8.64,10.1 -10.73,15.2 -2.15,5.3 -3.24,12.1 -3.24,20.4 0,7.9 1.45,14.4 4.45,19.8 3.21,5.8 7.52,10.6 13.17,14.6 6.31,4.5 13.96,7.9 22.71,10.3 9.41,2.6 19.68,3.9 30.54,3.9 30.55,0 57.26,-6.4 79.41,-19.1 l 37.45,-21.6 v 105.3 l -15.47,6.4 c -26.36,10.8 -58.92,16.3 -96.77,16.3 -22.12,0 -43.32,-3 -62.99,-9.1 -20.16,-6.2 -38.11,-15.3 -53.37,-27 -15.72,-12.1 -28.37,-27 -37.61,-44.3 -9.54,-17.7 -14.37,-37.9 -14.37,-59.9 0,-17 2.52,-32.6 7.49,-46.4 5.08,-14 13.05,-27.2 23.67,-39.1 9.85,-11 22.5,-21.8 37.59,-32.1 14.08,-9.6 31.13,-19.8 50.48,-30.3 16.72,-9.3 31.42,-17.7 43.67,-25 11,-6.6 20.09,-13.2 27,-19.6 5.69,-5.3 9.84,-10.8 12.34,-16.3 2.44,-5.5 3.68,-12.4 3.68,-20.5 0,-21.7 -8.74,-31 -15.32,-36.1 -11.9,-9.2 -32.6,-14.1 -59.87,-14.1 -7.25,0 -15.02,0.6 -23.1,2 -8.21,1.3 -16.5,3.3 -24.65,5.9 -8.11,2.6 -16.16,5.8 -23.94,9.7 -7.52,3.7 -14.45,7.9 -20.58,12.5 l -40,30 v -111.9 l 11.67,-7.3 c 7.32,-4.6 16.21,-8.7 27.15,-12.3 9.72,-3.3 20.08,-6.1 30.77,-8.4 10.61,-2.3 21.28,-4.1 31.73,-5.4 10.75,-1.2 19.87,-1.8 27.87,-1.8 23.52,0 45.56,2.8 65.53,8.3 20.81,5.7 39.16,14.4 54.54,25.9 16.1,12 28.79,27.4 37.72,45.6 8.85,18.1 13.33,38.9 13.33,62 0,17.1 -2.87,33 -8.54,47.3 -5.6,14.1 -14.06,27.5 -25.15,39.9" /><path
         id="path30"
         style="fill:#231f20;fill-opacity:1;fill-rule:nonzero;stroke:none"
         d="m 7385.89,4466.1 h -91 v -492 h 268.56 v 87.3 h -177.56 v 404.7" /><path
         id="path32"
         style="fill:#231f20;fill-opacity:1;fill-rule:nonzero;stroke:none"
         d="m 9027.71,4386.2 c 24.76,0 45.92,-4.2 62.9,-12.6 17.22,-8.6 30.93,-19.7 41.92,-34.1 11.22,-14.7 19.63,-32.3 25.03,-52.2 5.66,-21 8.54,-43.6 8.54,-67.2 0,-25.2 -3.22,-48.5 -9.57,-69.5 -6.09,-20.1 -15.16,-37.6 -26.95,-51.9 -11.66,-14.2 -25.85,-24.9 -43.38,-33 -17.47,-8 -38.4,-12 -62.19,-12 -23.42,0 -43.87,4.3 -60.77,13 -17.36,8.8 -31.27,20.3 -42.54,35 -11.51,15 -20.28,32.7 -26.05,52.5 -5.97,20.5 -8.9,42.3 -8.71,64.8 0.18,23.7 3.58,46.3 10.11,67.2 6.3,20.1 15.63,37.8 27.72,52.6 11.83,14.5 26.61,26.2 43.93,34.7 17.09,8.5 37.28,12.7 60.01,12.7 z m 170.74,15.5 c -19.75,22.4 -43.98,40.2 -72,52.8 -28,12.6 -59.77,19 -94.42,19 -37.17,0 -70.99,-6.4 -100.51,-19.1 -29.76,-12.8 -55.31,-31 -75.96,-54.1 -20.49,-22.9 -36.26,-50.6 -46.86,-82.4 -10.36,-31.1 -15.61,-65.7 -15.61,-102.7 0,-34 5.3,-66.2 15.74,-96 10.59,-30.2 26.01,-56.9 45.85,-79.3 20.03,-22.7 44.68,-40.8 73.27,-53.9 28.64,-13 61.07,-19.6 96.37,-19.6 37.36,0 71.1,6.7 100.28,20.1 29.22,13.4 54.23,32.2 74.31,55.9 19.84,23.4 35.03,51.3 45.14,83 9.88,31 14.9,65 14.9,100.9 0,34.4 -5.18,67 -15.4,96.6 -10.37,30.1 -25.55,56.6 -45.1,78.8" /><path
         id="path34"
         style="fill:#231f20;fill-opacity:1;fill-rule:nonzero;stroke:none"
         d="m 10743.5,4161.8 h 100.5 v -94.3 c -20.9,-9.2 -45.2,-13.8 -72.4,-13.8 -24.1,0 -45.3,4 -63.2,12 -17.6,7.9 -32.6,18.9 -44.5,32.8 -12.1,14.2 -21.4,31.5 -27.7,51.3 -6.5,20.5 -9.6,43.4 -9.5,68 0.2,24.5 4.1,47.5 11.5,68.3 7.3,20.4 17.7,38.3 30.8,53.1 12.9,14.5 28.8,26.1 47.3,34.5 18.4,8.3 39.5,12.5 62.7,12.5 39.1,0 76.1,-9.5 110,-28.3 l 37.1,-20.6 v 103.9 l -14.7,6.7 c -37.4,17 -80.3,25.6 -127.5,25.6 -25.3,0 -49.4,-3.1 -71.7,-9.2 -22.3,-6.1 -43,-15.1 -61.7,-26.5 -18.7,-11.5 -35.5,-25.3 -50,-41.2 -14.3,-15.7 -26.7,-33.5 -36.6,-52.9 -9.8,-19.2 -17.4,-40 -22.4,-61.8 -5.1,-21.7 -7.6,-44.6 -7.6,-68 0,-35.3 5.3,-68.3 15.7,-98.1 10.7,-30.3 26.2,-56.8 46.3,-78.8 20.2,-22.2 45,-39.7 73.6,-52.1 28.5,-12.3 60.9,-18.5 96.2,-18.5 54.9,0 107.6,13.9 156.6,41.4 l 12.7,7.2 v 234.1 h -191.5 v -87.3" /><path
         id="path36"
         style="fill:#231f20;fill-opacity:1;fill-rule:nonzero;stroke:none"
         d="m 12372.7,4192.1 45,123.7 45.3,-123.7 z m 8.4,274 -187.3,-492 h 99.4 l 47.5,130.7 h 154.7 l 48.7,-130.7 h 99.2 l -186.4,492 h -75.8" /><path
         id="path38"
         style="fill:#231f20;fill-opacity:1;fill-rule:nonzero;stroke:none"
         d="m 14218.4,4145.9 -220.5,320.2 h -83.5 v -492 h 91 v 323.3 l 223.6,-323.3 h 80.7 v 492 h -91.3 v -320.2" /><path
         id="path40"
         style="fill:#f1475b;fill-opacity:1;fill-rule:nonzero;stroke:none"
         d="m 7860,12103.3 v -724.7 c 0,-314.8 255.2,-570 570,-570 h 814.11 c 97.03,0 169.51,89.6 148.75,184.3 -43.12,197 -65.33,400 -65.33,606.5 0,751.2 292.55,1457.5 823.77,1988.7 506.5,506.5 1172.2,796 1884.3,821.8 58.3,2.1 104.4,50.3 104.4,108.7 v 0 c 0,25.2 -1.7,50.1 -4.9,74.4 -6.2,46.9 -41.2,85 -87.7,93.8 -224.5,42.4 -456.1,64.7 -692.8,64.7 -1519.4,0 -2829.03,-915.4 -3406.43,-2223.6 -58.99,-133.6 -88.17,-278.5 -88.17,-424.6" /><path
         id="path42"
         style="fill:#f46971;fill-opacity:1;fill-rule:nonzero;stroke:none"
         d="m 11320.5,14291.2 c 229.8,69.6 469.7,109.8 715.1,118.7 58.3,2.1 104.4,50.3 104.4,108.7 0,25.2 -1.7,50.1 -4.9,74.4 -6.2,46.9 -41.2,85 -87.7,93.8 -224.5,42.4 -456.1,64.7 -692.8,64.7 -1519.39,0 -2829.03,-915.4 -3406.43,-2223.6 -58.99,-133.6 -88.17,-278.5 -88.17,-424.6 v -460 c 0,146.1 29.18,291 88.17,424.6 573.06,1298.4 1867.45,2209.6 3372.33,2223.3" /><path
         id="path44"
         style="fill:#f1475b;fill-opacity:1;fill-rule:nonzero;stroke:none"
         d="m 10933.6,11852.8 c 0,794.7 452.5,1485.7 1113.3,1829.1 56.9,29.6 93.1,88.1 93.1,152.3 v 0 c 0,99.6 -84.8,178.2 -184.1,170.7 -1244.6,-94.4 -2228.37,-1137.3 -2228.37,-2405.5 0,-226.2 31.39,-445.2 89.9,-652.9 23.01,-81.7 97.85,-137.9 182.67,-137.9 h 1012.1 c 90.9,0 151.6,94.3 113.2,176.8 -123,263.7 -191.8,557.7 -191.8,867.4" /><path
         id="path46"
         style="fill:#f46971;fill-opacity:1;fill-rule:nonzero;stroke:none"
         d="m 9787.53,11299.4 c 0,1268.2 983.77,2311.1 2228.37,2405.5 20,1.5 39.5,-0.7 57.8,-5.7 41.2,32.2 66.3,81.6 66.3,135 v 0 c 0,99.6 -84.8,178.2 -184.1,170.7 -1244.6,-94.4 -2228.37,-1137.3 -2228.37,-2405.5 0,-215.2 28.45,-423.8 81.57,-622.4 -14.17,105.5 -21.57,213.1 -21.57,322.4" /><path
         id="path48"
         style="fill:#f1475b;fill-opacity:1;fill-rule:nonzero;stroke:none"
         d="m 8440.47,13944.4 c 378.42,378.4 819.14,675.5 1309.92,883.1 215.64,91.2 437.01,163.4 662.81,216.2 26.4,6.1 21.9,44.9 -5.2,44.9 H 8430 c -314.8,0 -570,-255.2 -570,-570 v -1224.9 c 0,-22.7 29.43,-31.4 41.82,-12.4 155.21,237.8 335.06,459.5 538.65,663.1" /><path
         id="path50"
         style="fill:#f46971;fill-opacity:1;fill-rule:nonzero;stroke:none"
         d="m 8430,14798.6 h 1254.19 c 22,9.7 43.99,19.5 66.2,28.9 215.64,91.2 437.01,163.4 662.81,216.2 26.4,6.1 21.9,44.9 -5.2,44.9 H 8430 c -314.8,0 -570,-255.2 -570,-570 v -290 c 0,314.8 255.2,570 570,570" /><path
         id="path52"
         style="fill:#f1475b;fill-opacity:1;fill-rule:nonzero;stroke:none"
         d="m 11333.6,11852.8 c 0,-330.5 97.1,-638.7 264.2,-897.6 58.4,-90.4 179.2,-118.5 270.8,-62.1 162.8,100.3 271.4,280.2 271.4,485.5 v 1698.5 c 0,86.8 -100.1,136.3 -168.4,82.8 -388.1,-304.1 -638,-777 -638,-1307.1" /><path
         id="path54"
         style="fill:#f46971;fill-opacity:1;fill-rule:nonzero;stroke:none"
         d="m 11453.6,11619.3 c 0,530.1 249.9,1003 638,1307.1 15,11.8 31.7,18.6 48.4,21.1 v 129.6 c 0,86.8 -100.1,136.3 -168.4,82.8 -388.1,-304.1 -638,-777 -638,-1307.1 0,-319.1 90.6,-617.4 247.2,-870.6 -81.9,196.2 -127.2,411.5 -127.2,637.1" /><path
         id="path56"
         style="fill:#231f20;fill-opacity:1;fill-rule:nonzero;stroke:none"
         d="m 12685,11283.5 c 0,-562.4 -457.5,-1020 -1020,-1020 H 8334.95 c -562.43,0 -1020,457.6 -1020,1020 v 2936.2 393.9 c 0,562.5 457.57,1020 1020,1020 H 11665 c 562.5,0 1020,-457.5 1020,-1020 v -393.9 z m -1020,4750.1 H 8334.95 c -782.99,0 -1420,-637 -1420,-1420 v -393.9 -2936.2 -393.9 c 0,-783 637.01,-1420 1420,-1420 H 11665 c 783,0 1420,637 1420,1420 v 393.9 2936.2 393.9 c 0,783 -637,1420 -1420,1420" /></g></g></svg>